<svg id="Capa_1" data-name="Capa 1" xmlns="http://www.w3.org/2000/svg" viewBox="0 0 1340.08 505.65"><defs><style>.cls-1{fill:#282929;}</style></defs><path class="cls-1" d="M382.27,197.09V82.36L82.94,81.2V586.8H214.17V447.15H383.35V327.09h-173Z" transform="translate(-82.94 -81.2)"/><path class="cls-1" d="M606.8,326H422.41V586.85H606.8Z" transform="translate(-82.94 -81.2)"/><path class="cls-1" d="M643.62,586.8h77V326h112.8V586.8H948.37V82.36H643.62Z" transform="translate(-82.94 -81.2)"/><ellipse class="cls-1" cx="431.86" cy="92.22" rx="92.39" ry="92.22"/><path class="cls-1" d="M1050.28,336.2v10.2H1024v16.15h20.12v10H1024v26.61h-12.63v-63Z" transform="translate(-82.94 -81.2)"/><path class="cls-1" d="M1060.07,341.12a7.41,7.41,0,0,1,0-10.56,8.32,8.32,0,0,1,11.1,0,7.41,7.41,0,0,1,0,10.56,8.32,8.32,0,0,1-11.1,0Zm11.77,8.08v50h-12.63v-50Z" transform="translate(-82.94 -81.2)"/><path class="cls-1" d="M1126.43,354.11q5.5,5.64,5.51,15.75v29.32H1119.3V371.57q0-6-3-9.15a10.55,10.55,0,0,0-8.12-3.21,10.79,10.79,0,0,0-8.26,3.21q-3,3.19-3,9.15v27.61h-12.64v-50h12.64v6.22a17.52,17.52,0,0,1,6.45-5.1,20,20,0,0,1,8.62-1.85Q1120.93,348.47,1126.43,354.11Z" transform="translate(-82.94 -81.2)"/><path class="cls-1" d="M1158.64,359.57v24.18a4.79,4.79,0,0,0,1.22,3.66,6,6,0,0,0,4.11,1.13h5.86v10.64h-7.94q-16,0-16-15.52V359.57h-6V349.2h6V336.83l12.72-3V349.2h11.19v10.37Z" transform="translate(-82.94 -81.2)"/><path class="cls-1" d="M1226.13,349.2v50h-12.72v-6.31a16.74,16.74,0,0,1-6.36,5.1,19.81,19.81,0,0,1-8.53,1.85,21.07,21.07,0,0,1-10.37-2.49,17.53,17.53,0,0,1-7.09-7.3,24.23,24.23,0,0,1-2.57-11.51V349.2h12.64v27.52q0,6,3,9.16a12,12,0,0,0,16.33,0q3-3.21,3-9.16V349.2Z" transform="translate(-82.94 -81.2)"/><path class="cls-1" d="M1238.36,360.57a22.23,22.23,0,0,1,8.21-9,21.91,21.91,0,0,1,11.6-3.16,20.42,20.42,0,0,1,9.79,2.26,20,20,0,0,1,6.72,5.68V349.2h12.72v50h-12.72v-7.3a18.89,18.89,0,0,1-6.72,5.81,20.53,20.53,0,0,1-9.88,2.31,21.32,21.32,0,0,1-11.51-3.25,22.79,22.79,0,0,1-8.21-9.16,29.49,29.49,0,0,1-3-13.58A29,29,0,0,1,1238.36,360.57Zm34.51,5.73a12.7,12.7,0,0,0-4.87-5.06,13,13,0,0,0-6.59-1.76,12.71,12.71,0,0,0-6.49,1.72,12.86,12.86,0,0,0-4.83,5,15.75,15.75,0,0,0-1.85,7.81,16.2,16.2,0,0,0,1.85,7.89,13.28,13.28,0,0,0,4.87,5.19,12.34,12.34,0,0,0,6.45,1.81,13,13,0,0,0,6.59-1.76,12.67,12.67,0,0,0,4.87-5.05,18.12,18.12,0,0,0,0-15.79Z" transform="translate(-82.94 -81.2)"/><path class="cls-1" d="M1312.39,329.41v69.77h-12.63V332.41Z" transform="translate(-82.94 -81.2)"/><path class="cls-1" d="M1024,429.2v63h-12.63v-63Z" transform="translate(-82.94 -81.2)"/><path class="cls-1" d="M1078.61,447.11q5.51,5.64,5.5,15.75v29.32h-12.63V464.57q0-6-3-9.15a10.52,10.52,0,0,0-8.12-3.21,10.77,10.77,0,0,0-8.25,3.21q-3,3.19-3,9.15v27.61h-12.63v-50h12.63v6.22a17.63,17.63,0,0,1,6.46-5.1,19.94,19.94,0,0,1,8.61-1.85Q1073.11,441.47,1078.61,447.11Z" transform="translate(-82.94 -81.2)"/><path class="cls-1" d="M1110.82,452.57v24.18a4.79,4.79,0,0,0,1.22,3.66,6,6,0,0,0,4.1,1.13H1122v10.64h-7.94q-16,0-16-15.52V452.57h-6V442.2h6V429.83h12.72V442.2H1122v10.37Z" transform="translate(-82.94 -81.2)"/><path class="cls-1" d="M1177.23,471h-36.54a12.39,12.39,0,0,0,3.79,8.48,11.65,11.65,0,0,0,8.21,3.07q7,0,10-6h13.63a22.8,22.8,0,0,1-8.3,11.87A24.24,24.24,0,0,1,1153,493a26,26,0,0,1-13-3.21,22.41,22.41,0,0,1-8.93-9.07,27.73,27.73,0,0,1-3.21-13.53,28.35,28.35,0,0,1,3.16-13.62,22.12,22.12,0,0,1,8.85-9,28.37,28.37,0,0,1,25.85-.09,21.71,21.71,0,0,1,8.75,8.71,26.39,26.39,0,0,1,3.11,12.95A29.86,29.86,0,0,1,1177.23,471Zm-12.72-8.48a10.05,10.05,0,0,0-3.52-7.81,12.51,12.51,0,0,0-8.39-2.93,11.5,11.5,0,0,0-7.9,2.84,12.53,12.53,0,0,0-3.92,7.9Z" transform="translate(-82.94 -81.2)"/><path class="cls-1" d="M1228.93,447.11q5.5,5.64,5.5,15.75v29.32H1221.8V464.57q0-6-3-9.15a10.56,10.56,0,0,0-8.13-3.21,10.79,10.79,0,0,0-8.25,3.21q-3,3.19-3,9.15v27.61h-12.64v-50h12.64v6.22a17.52,17.52,0,0,1,6.45-5.1,20,20,0,0,1,8.61-1.85Q1223.43,441.47,1228.93,447.11Z" transform="translate(-82.94 -81.2)"/><path class="cls-1" d="M1254.56,490.79a19.61,19.61,0,0,1-7.72-6,15.27,15.27,0,0,1-3.11-8.4h12.72a7,7,0,0,0,2.84,4.79,9.93,9.93,0,0,0,6.18,1.89,9.6,9.6,0,0,0,5.64-1.44,4.36,4.36,0,0,0,2-3.7,3.9,3.9,0,0,0-2.48-3.66,46.43,46.43,0,0,0-7.89-2.66,65.27,65.27,0,0,1-9.16-2.8,15.85,15.85,0,0,1-6.14-4.42,11.88,11.88,0,0,1-2.57-8,13,13,0,0,1,2.39-7.58,16.09,16.09,0,0,1,6.86-5.41,25.76,25.76,0,0,1,10.51-2q8.94,0,14.26,4.47a16.54,16.54,0,0,1,5.86,12h-12.09a6.55,6.55,0,0,0-2.48-4.74,9.23,9.23,0,0,0-5.91-1.76,9.32,9.32,0,0,0-5.28,1.26,4,4,0,0,0-1.85,3.52,4.13,4.13,0,0,0,2.53,3.84,39.13,39.13,0,0,0,7.85,2.66,64.84,64.84,0,0,1,8.93,2.8,15.73,15.73,0,0,1,6.09,4.46,12.25,12.25,0,0,1,2.66,8,13.22,13.22,0,0,1-2.39,7.76,15.84,15.84,0,0,1-6.85,5.37,26.09,26.09,0,0,1-10.43,1.94A26.35,26.35,0,0,1,1254.56,490.79Z" transform="translate(-82.94 -81.2)"/><path class="cls-1" d="M1296.47,434.12a7.41,7.41,0,0,1,0-10.56,8.32,8.32,0,0,1,11.1,0,7.41,7.41,0,0,1,0,10.56,8.32,8.32,0,0,1-11.1,0Zm11.77,8.08v50h-12.63v-50Z" transform="translate(-82.94 -81.2)"/><path class="cls-1" d="M1341.54,480.54l12.63-38.34h13.44l-18.49,50h-15.34l-18.41-50h13.54Z" transform="translate(-82.94 -81.2)"/><path class="cls-1" d="M1384,489.79a22.94,22.94,0,0,1-9.07-9.07,27.12,27.12,0,0,1-3.3-13.53,26.55,26.55,0,0,1,3.39-13.53,23.45,23.45,0,0,1,9.25-9.07,28.25,28.25,0,0,1,26.16,0,23.45,23.45,0,0,1,9.25,9.07,26.55,26.55,0,0,1,3.39,13.53,26,26,0,0,1-3.48,13.53,23.9,23.9,0,0,1-9.38,9.07,27.25,27.25,0,0,1-13.22,3.21A26.28,26.28,0,0,1,1384,489.79Zm19.44-9.47a12.11,12.11,0,0,0,4.83-5,16.89,16.89,0,0,0,1.8-8.12q0-7.12-3.74-11a12.31,12.31,0,0,0-9.16-3.84,12,12,0,0,0-9.07,3.84q-3.65,3.82-3.65,11t3.56,11a11.74,11.74,0,0,0,9,3.84A13.17,13.17,0,0,0,1403.39,480.32Z" transform="translate(-82.94 -81.2)"/><path class="cls-1" d="M1065.26,585.18h-12.64L1024,542v43.22h-12.63V522.11H1024l28.6,43.31V522.11h12.64Z" transform="translate(-82.94 -81.2)"/><path class="cls-1" d="M1077.48,546.57a22.23,22.23,0,0,1,8.21-9,21.91,21.91,0,0,1,11.6-3.16,20.42,20.42,0,0,1,9.79,2.26,20,20,0,0,1,6.72,5.68V535.2h12.72v50H1113.8v-7.3a18.81,18.81,0,0,1-6.72,5.81,20.51,20.51,0,0,1-9.88,2.31,21.32,21.32,0,0,1-11.51-3.25,22.79,22.79,0,0,1-8.21-9.16,29.49,29.49,0,0,1-3-13.58A29,29,0,0,1,1077.48,546.57ZM1112,552.3a12.7,12.7,0,0,0-4.87-5.06,13,13,0,0,0-6.59-1.76,12.71,12.71,0,0,0-6.49,1.72,12.86,12.86,0,0,0-4.83,5,15.75,15.75,0,0,0-1.85,7.81,16.2,16.2,0,0,0,1.85,7.89,13.28,13.28,0,0,0,4.87,5.19,12.34,12.34,0,0,0,6.45,1.81,13,13,0,0,0,6.59-1.76,12.67,12.67,0,0,0,4.87-5,18.12,18.12,0,0,0,0-15.79Z" transform="translate(-82.94 -81.2)"/><path class="cls-1" d="M1153.59,545.57v24.18a4.79,4.79,0,0,0,1.22,3.66,6,6,0,0,0,4.1,1.13h5.87v10.64h-7.94q-16,0-16-15.52V545.57h-6V535.2h6V522.83h12.72V535.2h11.19v10.37Z" transform="translate(-82.94 -81.2)"/><path class="cls-1" d="M1173.66,546.57a22.25,22.25,0,0,1,8.22-9,21.87,21.87,0,0,1,11.59-3.16,20.42,20.42,0,0,1,9.79,2.26,19.8,19.8,0,0,1,6.72,5.68V535.2h12.73v50H1210v-7.3a18.72,18.72,0,0,1-6.72,5.81,20.51,20.51,0,0,1-9.88,2.31,21.26,21.26,0,0,1-11.5-3.25,22.81,22.81,0,0,1-8.22-9.16,29.49,29.49,0,0,1-3-13.58A29,29,0,0,1,1173.66,546.57Zm34.52,5.73a12.79,12.79,0,0,0-4.88-5.06,13,13,0,0,0-6.58-1.76,12.74,12.74,0,0,0-6.5,1.72,13,13,0,0,0-4.83,5,15.74,15.74,0,0,0-1.84,7.81,16.19,16.19,0,0,0,1.84,7.89,13.3,13.3,0,0,0,4.88,5.19,12.29,12.29,0,0,0,6.45,1.81,13,13,0,0,0,6.58-1.76,12.76,12.76,0,0,0,4.88-5,18.21,18.21,0,0,0,0-15.79Z" transform="translate(-82.94 -81.2)"/><path class="cls-1" d="M1247.7,518.41v66.77h-12.63V518.41Z" transform="translate(-82.94 -81.2)"/><path class="cls-1" d="M1306.26,564h-36.55a12.43,12.43,0,0,0,3.79,8.48,11.69,11.69,0,0,0,8.22,3.07q7,0,10-6h13.63a22.81,22.81,0,0,1-8.31,11.87A24.21,24.21,0,0,1,1282,586a26,26,0,0,1-13-3.21,22.5,22.5,0,0,1-8.94-9.07,27.84,27.84,0,0,1-3.2-13.53,28.24,28.24,0,0,1,3.16-13.62,22,22,0,0,1,8.84-9,28.37,28.37,0,0,1,25.85-.09,21.67,21.67,0,0,1,8.76,8.71,26.39,26.39,0,0,1,3.11,13A29.86,29.86,0,0,1,1306.26,564Zm-12.72-8.48a10.08,10.08,0,0,0-3.52-7.81,12.51,12.51,0,0,0-8.39-2.93,11.49,11.49,0,0,0-7.9,2.84,12.54,12.54,0,0,0-3.93,7.9Z" transform="translate(-82.94 -81.2)"/><path class="cls-1" d="M1323.94,583.79a19.5,19.5,0,0,1-7.71-6,15.2,15.2,0,0,1-3.12-8.4h12.73a6.92,6.92,0,0,0,2.84,4.79,9.89,9.89,0,0,0,6.18,1.89,9.62,9.62,0,0,0,5.64-1.44,4.38,4.38,0,0,0,2-3.7,3.92,3.92,0,0,0-2.48-3.66,46.94,46.94,0,0,0-7.9-2.66,65.69,65.69,0,0,1-9.16-2.8,15.81,15.81,0,0,1-6.13-4.42,11.82,11.82,0,0,1-2.57-8,12.94,12.94,0,0,1,2.39-7.58,16,16,0,0,1,6.86-5.41,25.73,25.73,0,0,1,10.51-2q8.92,0,14.25,4.47a16.55,16.55,0,0,1,5.87,12h-12.09a6.55,6.55,0,0,0-2.48-4.74,11.2,11.2,0,0,0-11.19-.5,4,4,0,0,0-1.85,3.52,4.13,4.13,0,0,0,2.53,3.84,39.22,39.22,0,0,0,7.84,2.66,65.47,65.47,0,0,1,8.94,2.8,15.88,15.88,0,0,1,6.09,4.46,12.31,12.31,0,0,1,2.66,8,13.3,13.3,0,0,1-2.39,7.76,15.87,15.87,0,0,1-6.86,5.37A26,26,0,0,1,1335,586,26.43,26.43,0,0,1,1323.94,583.79Z" transform="translate(-82.94 -81.2)"/></svg>